# xmcd
#
# Track frame offsets: 
#        150
#        35025
#        61467
#        88342
#        129625
#        142512
#        173530
#        218932
#        254010
#        306712
#
# Disc length: 4307 seconds
#
# Revision: 1
# Processed by: cddbd v1.5.2PL0 Copyright (c) Steve Scherf et al.
# Submitted via: ExactAudioCopy v0.99pb4
#
DISCID=9810d10a
DTITLE=Gerard Schwarz and Royal Liverpool Philharmonic Orchestra - Alan 
DTITLE=Hovhaness Mysterious Mountains
DYEAR=2003
DGENRE=Classical
TTITLE0=Alan Hovhaness Symphony No.2, "mysterious mountain", op.132 - 
TTITLE0=I. Andante con moto
TTITLE1=Alan Hovhaness Symphony No.2, "mysterious mountain", op.132 - 
TTITLE1=II. Double fugue - moderato maestoso
TTITLE2=Alan Hovhaness Symphony No.2, "mysterious mountain", op.132 - 
TTITLE2=III. Andante espressivo
TTITLE3=Alan Hovhaness Symphony No.66, "Hymn to Glacier Peak", op.428 
TTITLE3=I. Andante maestoso
TTITLE4=Alan Hovhaness Symphony No.66, "Hymn to Glacier Peak", op.428 
TTITLE4=II. Love song to Hinako - Andante espressivo
TTITLE5=Alan Hovhaness Symphony No.66, "Hymn to Glacier Peak", op.428 
TTITLE5=III. Prelude and fugue - Largo maestoso
TTITLE6=Alan Hovhaness Symphony No.50, "Mount St. Helens", op.360 - I.
TTITLE6=Andante, grazioso
TTITLE7=Alan Hovhaness Symphony No.50, "Mount St. Helens", op.360 - II
TTITLE7=Spirit lake - Allegro
TTITLE8=Alan Hovhaness Symphony No.50, "Mount St. Helens", op.360 - II
TTITLE8=I. Volcano - Adagio-allegro-adagio
TTITLE9=Alan Hovhaness Storm on Mount Wildcat, op.2, No.2 - Lento temp
TTITLE9=estoso
EXTD=
EXTT0=
EXTT1=
EXTT2=
EXTT3=
EXTT4=
EXTT5=
EXTT6=
EXTT7=
EXTT8=
EXTT9=
PLAYORDER=
